<svg version="1.1" xmlns="http://www.w3.org/2000/svg" xmlns:xlink="http://www.w3.org/1999/xlink" viewBox="0 0 40 40" xml:space="preserve">
<path fill="#1DA1F2" d="M12.579,36.252c15.095,0,23.351-12.508,23.351-23.352c0-0.355,0-0.709-0.025-1.061
	c1.607-1.162,2.992-2.6,4.096-4.248c-1.498,0.664-3.088,1.1-4.713,1.292C37,7.857,38.281,6.245,38.895,4.344
	c-1.611,0.956-3.373,1.629-5.213,1.992c-3.107-3.305-8.305-3.464-11.609-0.357c-2.132,2.005-3.036,4.991-2.375,7.842
	C13.099,13.49,6.951,10.373,2.784,5.247c-2.178,3.75-1.065,8.546,2.542,10.955c-1.307-0.039-2.584-0.391-3.725-1.028
	c0,0.034,0,0.069,0,0.104c0.001,3.907,2.755,7.271,6.583,8.044c-1.208,0.329-2.476,0.377-3.705,0.142
	c1.075,3.343,4.156,5.634,7.667,5.698c-2.906,2.285-6.496,3.525-10.192,3.521C1.301,32.682,0.648,32.643,0,32.564
	c3.753,2.408,8.12,3.686,12.579,3.68"/>
</svg>
