<svg version="1.1" xmlns="http://www.w3.org/2000/svg" xmlns:xlink="http://www.w3.org/1999/xlink" x="0px" y="0px"
	 width="50px" height="50px" viewBox="0 0 50 50" enable-background="new 0 0 50 50" xml:space="preserve">
<path fill="#B4B4B4" d="M42.906,42.104c0.92,0,1.666,0.747,1.666,1.667c0,0.921-0.746,1.667-1.666,1.667H7.093
	c-0.92,0-1.666-0.746-1.666-1.667c0-0.92,0.746-1.667,1.666-1.667H42.906z M23.322,7.104c0-0.92,0.747-1.667,1.667-1.667
	s1.667,0.746,1.667,1.667v25.583l4.624-4.708c0.167-0.121,0.35-0.22,0.543-0.292c0.187-0.068,0.384-0.097,0.582-0.083
	c0.912,0.021,1.646,0.755,1.667,1.666c-0.008,0.198-0.036,0.394-0.084,0.584c-0.071,0.193-0.169,0.376-0.29,0.542l-7.563,7.457
	c-0.151,0.163-0.336,0.29-0.542,0.376c-0.191,0.079-0.396,0.121-0.604,0.124c-0.215,0.004-0.428-0.04-0.625-0.124
	c-0.205-0.086-0.39-0.213-0.543-0.376l-7.562-7.457c-0.121-0.166-0.221-0.349-0.292-0.542c-0.067-0.187-0.097-0.386-0.082-0.584
	c0.021-0.911,0.755-1.645,1.666-1.666c0.196,0.007,0.392,0.034,0.583,0.083c0.193,0.072,0.375,0.171,0.541,0.292l4.646,4.708V7.104z
	"/>
</svg>
