<svg version="1.1" xmlns="http://www.w3.org/2000/svg" xmlns:xlink="http://www.w3.org/1999/xlink" x="0px" y="0px"
	 width="50px" height="50px" viewBox="0 0 50 50" enable-background="new 0 0 50 50" xml:space="preserve">
<path fill="#B4B4B4" d="M39.987,33.644c-2.536-1.465-5.688-0.896-7.567,1.201L19.116,27.16c0.18-0.581,0.277-1.198,0.277-1.838
	c0-0.633-0.096-1.243-0.271-1.818l13.386-8.073c1.934,1.899,4.974,2.331,7.401,0.866c2.876-1.734,3.803-5.474,2.068-8.353
	c-1.733-2.878-5.473-3.805-8.35-2.07c-2.507,1.512-3.532,4.546-2.607,7.207l-13.294,8.016c-1.134-1.219-2.747-1.986-4.543-1.986
	c-3.43,0-6.211,2.78-6.211,6.211c0,3.43,2.781,6.21,6.211,6.21c1.789,0,3.397-0.761,4.53-1.972l13.37,7.724
	c-0.728,2.61,0.366,5.481,2.821,6.899c2.909,1.68,6.63,0.683,8.309-2.228C43.893,39.045,42.895,35.323,39.987,33.644z M35.062,8.256
	c1.561-0.942,3.591-0.438,4.534,1.124c0.941,1.563,0.437,3.594-1.124,4.536c-1.561,0.942-3.592,0.439-4.534-1.124
	C32.997,11.229,33.502,9.198,35.062,8.256z M39.805,40.565c-0.911,1.581-2.932,2.121-4.512,1.21
	c-1.578-0.913-2.12-2.934-1.208-4.514c0.913-1.581,2.934-2.122,4.511-1.209C40.176,36.964,40.717,38.984,39.805,40.565z"/>
</svg>
