<svg id="Camada_1" data-name="Camada 1" xmlns="http://www.w3.org/2000/svg" viewBox="0 0 196.84 97.21"><defs><style>.cls-1{fill:#229a9e;}.cls-2{fill:#94c3c7;}.cls-3{fill:#386563;}.cls-4{fill:#0e7e70;}.cls-5{fill:#3f9785;}</style></defs><title>Marca-</title><path class="cls-1" d="M79.5,26.62h9.2c5,0,8.28,4.5,8.28,9.71,0,3.38-1.65,7.67-5.75,8.3l7,12.17H91.54L85.41,45.05h-.08V56.8H79.5ZM85.33,40h1.91C89.62,40,91,38.71,91,36.21s-1.38-3.75-3.76-3.75H85.33Z"/><path class="cls-1" d="M101.08,56.8V26.62h13.79v5.84h-8V38h8v5.84h-8V51h8V56.8Z"/><path class="cls-1" d="M134.26,26.62h8.28V56.8H137.4V33.37h-.07L132.27,56.8h-4.22L123,33.37h-.08V56.8h-5.14V26.62h8.28l4.06,20.26h.08Z"/><path class="cls-1" d="M145.91,47.59V42.34h9.54v5.25Z"/><path class="cls-1" d="M163.42,47.3c.08,3,1.08,4.42,3.6,4.42,2.15,0,3.3-1.42,3.3-3.59,0-5.08-12.26-2.58-12.26-12.67,0-5.71,3.29-9.34,8.7-9.34,5.25,0,8.16,2.67,9,8.59h-5.67c-.08-2-1.23-3.34-3.1-3.34a3,3,0,0,0-3,3.3c0,5.37,12.26,2.12,12.26,13.54,0,5.63-4,9.09-9.39,9.09-6.48,0-9.31-3.71-9.31-10Z"/><path class="cls-1" d="M187.56,26.62c5.37,0,9.28,3.5,9.28,9.84s-3.91,9.84-9.28,9.84h-2.22V56.8h-5.82V26.62Zm-2.22,13.84h2.15c2.26,0,3.37-1.21,3.37-4s-1.11-4-3.37-4h-2.15Z"/><path class="cls-1" d="M78.93,61.26h2.15A2.08,2.08,0,0,1,83,63.52a1.83,1.83,0,0,1-1.34,1.94l1.62,2.84H81.74l-1.43-2.75h0V68.3H78.93Zm1.36,3.11h.45a.88.88,0,0,0,0-1.75h-.45Z"/><path class="cls-1" d="M84.88,65.9v.32c0,.72.27,1,.68,1s.54-.22.63-.68h1.19c-.19,1.57-1.16,1.9-1.81,1.9-1.33,0-2-1.22-2-2.87s.63-2.88,2-2.88,1.85,1.05,1.85,2.72v.52ZM86.22,65v-.23c0-.57-.19-1-.63-1s-.71.42-.71,1V65Z"/><path class="cls-1" d="M90.66,68.3v-.63h0a.93.93,0,0,1-1,.74c-.91,0-1.6-.89-1.6-2.87s.57-2.88,1.6-2.88a.93.93,0,0,1,.91.6h0v-2h1.14v7Zm-.1-3.54c0-.57-.23-.8-.57-.8s-.71.27-.71,1.48.24,1.67.63,1.67.65-.23.65-.88Z"/><path class="cls-1" d="M93.82,65.9v.32c0,.72.27,1,.68,1s.54-.22.62-.68h1.2c-.19,1.57-1.16,1.9-1.81,1.9-1.33,0-2-1.22-2-2.87s.63-2.88,2-2.88,1.85,1.05,1.85,2.72v.52ZM95.16,65v-.23c0-.57-.2-1-.63-1s-.71.42-.71,1V65Z"/><path class="cls-1" d="M102.09,68.3v-.63h0a.93.93,0,0,1-1,.74c-.91,0-1.6-.89-1.6-2.87s.57-2.88,1.6-2.88a.92.92,0,0,1,.91.6h0v-2h1.15v7ZM102,64.76c0-.57-.23-.8-.57-.8s-.71.27-.71,1.48.24,1.67.64,1.67.64-.23.64-.88Z"/><path class="cls-1" d="M105.24,65.9v.32c0,.72.27,1,.68,1s.54-.22.63-.68h1.19c-.19,1.57-1.16,1.9-1.81,1.9-1.33,0-2-1.22-2-2.87s.63-2.88,2-2.88,1.85,1.05,1.85,2.72v.52Zm1.34-.93v-.23c0-.57-.19-1-.63-1s-.71.42-.71,1V65Z"/><path class="cls-1" d="M111.27,68.3v-7h3.22v1.36h-1.86v1.3h1.86v1.36h-1.86v1.66h1.86V68.3Z"/><path class="cls-1" d="M118,68.3v-.63h0a.93.93,0,0,1-1,.74c-.91,0-1.6-.89-1.6-2.87s.57-2.88,1.6-2.88a.92.92,0,0,1,.91.6h0v-2h1.15v7Zm-.11-3.54c0-.57-.23-.8-.57-.8s-.71.27-.71,1.48.24,1.67.64,1.67.64-.23.64-.88Z"/><path class="cls-1" d="M122.44,67.63h0a.93.93,0,0,1-1,.78c-.81,0-1.37-.58-1.37-1.59v-4h1.2V66.4c0,.49.13.71.45.71s.59-.17.59-.71V62.77h1.19V68.3h-1.09Z"/><path class="cls-1" d="M126.71,64.87c0-.64-.23-1-.51-1s-.6.39-.6,1.66.22,1.65.6,1.65.48-.55.51-1H128c0,1.08-.74,2.21-1.71,2.21-1.16,0-1.94-1-1.94-2.87s.78-2.88,1.94-2.88c1,0,1.68,1.12,1.71,2.21Z"/><path class="cls-1" d="M130.88,68.3v-.53h0a.94.94,0,0,1-1,.64c-.91,0-1.6-.89-1.6-2.87s.56-2.88,1.6-2.88a.92.92,0,0,1,1,.68h0v-.57H132V68.3Zm-.11-3.41c0-.64-.23-.93-.64-.93s-.63.35-.63,1.58.27,1.57.63,1.57.64-.29.64-.93Z"/><path class="cls-1" d="M135.35,68.3v-.63h0a.93.93,0,0,1-1,.74c-.92,0-1.6-.89-1.6-2.87s.56-2.88,1.6-2.88a.93.93,0,0,1,.91.6h0v-2h1.14v7Zm-.11-3.54c0-.57-.23-.8-.57-.8s-.71.27-.71,1.48.25,1.67.64,1.67.64-.23.64-.88Z"/><path class="cls-1" d="M139.19,62.66c1.33,0,2,1.28,2,2.88s-.63,2.87-2,2.87-1.95-1.28-1.95-2.87S137.86,62.66,139.19,62.66Zm0,4.53c.4,0,.67-.35.67-1.65s-.27-1.66-.71-1.66-.67.35-.67,1.66S138.77,67.19,139.21,67.19Z"/><path class="cls-1" d="M143,62.77v.63h0a1,1,0,0,1,1.13-.84h.14v1.57a1.15,1.15,0,0,0-.48-.13c-.39,0-.7.29-.7,1V68.3H142V62.77Z"/><path class="cls-1" d="M146,65.9v.32c0,.72.27,1,.68,1s.53-.22.62-.68h1.2c-.2,1.57-1.16,1.9-1.81,1.9-1.33,0-2-1.22-2-2.87s.63-2.88,2-2.88,1.85,1.05,1.85,2.72v.52Zm1.34-.93v-.23c0-.57-.2-1-.64-1s-.7.42-.7,1V65Z"/><path class="cls-1" d="M150.18,66.53a.67.67,0,0,0,.68.7c.39,0,.5-.29.5-.56,0-.94-2.29-.2-2.29-2.41a1.54,1.54,0,0,1,1.73-1.6c1.12,0,1.63.68,1.7,1.75h-1.2c0-.41-.17-.63-.53-.63a.4.4,0,0,0-.43.43c0,1,2.28.14,2.28,2.39a1.75,1.75,0,0,1-1.79,1.81A1.79,1.79,0,0,1,149,66.53Z"/><path class="cls-1" d="M158.18,68.3v-.63h0a.94.94,0,0,1-1,.74c-.91,0-1.6-.89-1.6-2.87s.56-2.88,1.6-2.88a.93.93,0,0,1,.91.6h0v-2h1.14v7Zm-.1-3.54c0-.57-.24-.8-.58-.8s-.7.27-.7,1.48.24,1.67.63,1.67.65-.23.65-.88Z"/><path class="cls-1" d="M161.34,65.9v.32c0,.72.27,1,.68,1s.53-.22.62-.68h1.2c-.2,1.57-1.16,1.9-1.81,1.9-1.34,0-2-1.22-2-2.87s.62-2.88,2-2.88,1.85,1.05,1.85,2.72v.52Zm1.34-.93v-.23c0-.57-.2-1-.64-1s-.7.42-.7,1V65Z"/><path class="cls-1" d="M171.18,61.26h1.93v7h-1.2V62.83h0l-1.18,5.47h-1l-1.18-5.47h0V68.3h-1.2v-7h1.94l.94,4.72h0Z"/><path class="cls-1" d="M176.56,67.63h0a.93.93,0,0,1-1,.78c-.81,0-1.36-.58-1.36-1.59v-4h1.19V66.4c0,.49.14.71.45.71s.59-.17.59-.71V62.77h1.2V68.3h-1.09Z"/><path class="cls-1" d="M179.47,66.53a.69.69,0,0,0,.69.7c.38,0,.49-.29.49-.56,0-.94-2.29-.2-2.29-2.41a1.55,1.55,0,0,1,1.74-1.6c1.11,0,1.62.68,1.69,1.75H180.6c0-.41-.17-.63-.54-.63a.4.4,0,0,0-.43.43c0,1,2.29.14,2.29,2.39a1.75,1.75,0,0,1-1.8,1.81,1.8,1.8,0,0,1-1.85-1.88Z"/><path class="cls-1" d="M183.68,65.9v.32c0,.72.27,1,.68,1s.54-.22.63-.68h1.19c-.19,1.57-1.16,1.9-1.81,1.9-1.33,0-2-1.22-2-2.87s.63-2.88,2-2.88,1.85,1.05,1.85,2.72v.52ZM185,65v-.23c0-.57-.2-1-.63-1s-.71.42-.71,1V65Z"/><path class="cls-1" d="M189.46,67.63h0a.92.92,0,0,1-.95.78c-.82,0-1.37-.58-1.37-1.59v-4h1.2V66.4c0,.49.13.71.45.71s.58-.17.58-.71V62.77h1.2V68.3h-1.09Z"/><path class="cls-1" d="M192.38,66.53a.67.67,0,0,0,.68.7c.39,0,.5-.29.5-.56,0-.94-2.29-.2-2.29-2.41a1.54,1.54,0,0,1,1.73-1.6c1.12,0,1.63.68,1.7,1.75h-1.2c0-.41-.17-.63-.53-.63a.4.4,0,0,0-.43.43c0,1,2.28.14,2.28,2.39A1.75,1.75,0,0,1,193,68.41a1.79,1.79,0,0,1-1.85-1.88Z"/><rect class="cls-2" x="3.09" y="3.51" width="102.01" height="0.43"/><rect class="cls-2" x="6.71" y="2.19" width="0.43" height="18.5" transform="translate(-4.76 4.93) rotate(-29.66)"/><rect class="cls-2" x="10.41" y="12.83" width="42.74" height="0.43" transform="translate(-2.55 14.39) rotate(-24.56)"/><rect class="cls-2" x="41.08" y="11.71" width="17.19" height="0.43" transform="translate(27.81 58.1) rotate(-78.16)"/><rect class="cls-2" x="40.25" y="19.06" width="8.09" height="0.43"/><rect class="cls-2" x="30.27" y="21.14" width="9.1" height="0.43" transform="translate(-5.69 16.12) rotate(-24.16)"/><rect class="cls-2" x="19.86" y="15.08" width="0.43" height="13.38" transform="translate(-3.66 39.49) rotate(-84.06)"/><rect class="cls-2" x="30.63" y="14.53" width="76.09" height="0.43" transform="translate(-1.33 20.55) rotate(-16.86)"/><rect class="cls-2" x="79.59" y="11.93" width="29.82" height="0.43" transform="translate(12.44 60.55) rotate(-37.86)"/><rect class="cls-2" x="71.71" y="9.14" width="0.43" height="21.77" transform="translate(43.6 89.1) rotate(-83.26)"/><rect class="cls-2" x="56.12" y="33.12" width="29.37" height="0.43" transform="translate(0.29 67.26) rotate(-50.9)"/><rect class="cls-2" x="61.12" y="20.54" width="0.43" height="23.45" transform="translate(-1.4 2.82) rotate(-2.6)"/><rect class="cls-2" x="31.57" y="35.3" width="36.94" height="0.43" transform="translate(-7.21 57.58) rotate(-56.43)"/><rect class="cls-2" x="47.17" y="17.77" width="0.43" height="34.21" transform="translate(-7.36 56.43) rotate(-57.84)"/><rect class="cls-2" x="9.62" y="38.55" width="31.77" height="0.43" transform="translate(-18.92 52.16) rotate(-73.44)"/><rect class="cls-2" x="32.26" y="34.9" width="0.43" height="19.53" transform="translate(-21.48 32.91) rotate(-41.69)"/><rect class="cls-2" x="22.75" y="51.43" width="16.68" height="0.43" transform="translate(-4.51 3) rotate(-5.15)"/><rect class="cls-2" x="24.86" y="52.03" width="0.43" height="15.19" transform="translate(-16.81 10.33) rotate(-17.55)"/><rect class="cls-2" x="25.31" y="58.67" width="18.37" height="0.43" transform="translate(-33.56 53.82) rotate(-55.38)"/><rect class="cls-2" x="49.41" y="49.54" width="0.43" height="38.7" transform="translate(-27.15 32.64) rotate(-28.96)"/><rect class="cls-2" x="48.24" y="45.59" width="0.43" height="19.02" transform="translate(-24.13 65.86) rotate(-57.11)"/><rect class="cls-2" x="51.74" y="52.44" width="14.92" height="0.43" transform="translate(-9.4 92.3) rotate(-71.67)"/><rect class="cls-2" x="68.73" y="44.22" width="0.43" height="36.04" transform="translate(-16.82 26.59) rotate(-19.51)"/><rect class="cls-2" x="64.47" y="57.69" width="0.43" height="18.58" transform="translate(-27.96 76.31) rotate(-51.75)"/><rect class="cls-2" x="16.66" y="21.01" width="0.43" height="32.62" transform="translate(-8.62 5.27) rotate(-14.17)"/><rect class="cls-2" x="19.27" y="18.34" width="0.43" height="22.52" transform="translate(-14.47 19.46) rotate(-40.01)"/><rect class="cls-2" x="57.82" y="61.68" width="0.43" height="23.8" transform="translate(-8.16 7.25) rotate(-6.68)"/><rect class="cls-2" x="24.58" y="72.57" width="34.76" height="0.43" transform="translate(-36.42 42.53) rotate(-38.93)"/><rect class="cls-2" x="27.79" y="66.23" width="0.43" height="17.78"/><rect class="cls-2" x="32.55" y="66.47" width="0.43" height="18.14" transform="translate(-25.02 16.88) rotate(-21.12)"/><rect class="cls-2" x="43.12" y="61.01" width="0.43" height="33.87" transform="translate(-44.26 61.2) rotate(-50.1)"/><rect class="cls-2" x="51.8" y="59.63" width="0.43" height="48.66" transform="translate(-32.06 135.79) rotate(-89.87)"/><rect class="cls-2" x="57.18" y="80.66" width="18.53" height="0.43" transform="translate(-38.02 87.34) rotate(-54.14)"/><rect class="cls-2" x="79.88" y="71.57" width="0.43" height="38.33" transform="translate(-17.87 161.81) rotate(-84.53)"/><rect class="cls-2" x="88.64" y="78.21" width="0.43" height="21.5" transform="translate(-28.28 134.68) rotate(-66.35)"/><rect class="cls-2" x="82.26" y="67.88" width="0.43" height="18.52" transform="translate(-23.71 115.59) rotate(-62.99)"/><rect class="cls-2" x="59.37" y="87.1" width="42.79" height="0.43" transform="translate(-9.83 10.25) rotate(-6.85)"/><rect class="cls-2" x="84.28" y="76.5" width="0.43" height="9.69" transform="translate(1.3 164.03) rotate(-88.74)"/><rect class="cls-2" x="96.26" y="77.4" width="0.43" height="11.53" transform="translate(-10.17 152.8) rotate(-73.91)"/><rect class="cls-2" x="90.76" y="78.48" width="12.16" height="0.43" transform="translate(-18.99 32.29) rotate(-17.27)"/><rect class="cls-2" x="102.58" y="75.39" width="12.16" height="0.43" transform="translate(-17.54 35.66) rotate(-17.27)"/><rect class="cls-2" x="113.15" y="73.19" width="0.43" height="22.43" transform="translate(27.55 196.7) rotate(-89.28)"/><rect class="cls-2" x="115.39" y="78.08" width="0.43" height="30.12" transform="translate(18.18 205.15) rotate(-87.84)"/><polygon class="cls-2" points="128.21 93.36 110.47 84.56 110.66 84.18 128.4 92.98 128.21 93.36"/><rect class="cls-2" x="126.66" y="83.15" width="0.43" height="10.25" transform="translate(-26.95 73.19) rotate(-29.23)"/><rect class="cls-2" x="119.84" y="71.21" width="0.43" height="14.63" transform="matrix(0.81, -0.59, 0.59, 0.81, -23.21, 85.86)"/><rect class="cls-2" x="107.66" y="79.4" width="10.42" height="0.43" transform="translate(-8.99 144.64) rotate(-63.28)"/><rect class="cls-2" x="106.75" y="75.29" width="0.43" height="10.62" transform="translate(-24.93 103.93) rotate(-47.03)"/><rect class="cls-2" x="96.55" y="88.5" width="8.28" height="0.43" transform="translate(-18.92 149.56) rotate(-68.34)"/><rect class="cls-2" x="98.34" y="88.5" width="13.33" height="0.43" transform="translate(-32.41 85.21) rotate(-38.73)"/><circle class="cls-3" cx="60.48" cy="19.59" r="2.98"/><circle class="cls-3" cx="89.51" cy="81.09" r="2.58"/><circle class="cls-3" cx="102.15" cy="84.26" r="1.29"/><circle class="cls-3" cx="124.46" cy="84.26" r="3.24"/><circle class="cls-3" cx="36.03" cy="84.01" r="1.49"/><circle class="cls-4" cx="56.43" cy="60.27" r="2.77"/><circle class="cls-5" cx="50.9" cy="4.05" r="3.62"/><circle class="cls-5" cx="2.13" cy="3.83" r="2.13"/><circle class="cls-5" cx="29.81" cy="23.85" r="4.26"/><circle class="cls-5" cx="48.53" cy="19.99" r="2.47"/><circle class="cls-5" cx="28.01" cy="84.01" r="1.49"/><circle class="cls-5" cx="102.22" cy="76.77" r="2.16"/><circle class="cls-5" cx="99.17" cy="92.57" r="1.76"/><circle class="cls-1" cx="107.33" cy="3.83" r="3.83"/><circle class="cls-1" cx="80.92" cy="20.44" r="2.56"/><circle class="cls-1" cx="38.97" cy="19.38" r="2.34"/><circle class="cls-1" cx="12.56" cy="20.23" r="2.77"/><circle class="cls-1" cx="62.18" cy="43.87" r="2.98"/><circle class="cls-1" cx="58.91" cy="87.9" r="3.97"/><circle class="cls-1" cx="27.98" cy="66.45" r="3.81"/><circle class="cls-1" cx="115.99" cy="73" r="2.96"/><circle class="cls-1" cx="128.84" cy="93.73" r="3.48"/><circle class="cls-1" cx="76.58" cy="81.64" r="4.28"/><circle class="cls-1" cx="72.3" cy="71.87" r="2.16"/><circle class="cls-1" cx="25.34" cy="38.12" r="4.05"/><circle class="cls-1" cx="20.66" cy="52.6" r="3.62"/><circle class="cls-1" cx="39.82" cy="50.9" r="2.34"/><circle class="cls-1" cx="49.59" cy="84.01" r="1.94"/><circle class="cls-1" cx="110.53" cy="84.26" r="1.55"/></svg>