<svg id="Camada_1" data-name="Camada 1" xmlns="http://www.w3.org/2000/svg" viewBox="0 0 302.83 46.75"><defs><style>.cls-1{fill:#0c0d05;}.cls-2,.cls-3{fill:#002565;}.cls-2,.cls-4,.cls-5{fill-rule:evenodd;}.cls-4{fill:#f0d800;}.cls-5{fill:#ccb318;}</style></defs><title>Marca-</title><path class="cls-1" d="M55.85,41.71a3.57,3.57,0,0,1,.87-2.55A3,3,0,0,1,59,38.24a3.14,3.14,0,0,1,1.63.44,2.78,2.78,0,0,1,1.1,1.2,4.17,4.17,0,0,1,0,3.52,2.71,2.71,0,0,1-1.13,1.19A3.23,3.23,0,0,1,59,45a3,3,0,0,1-1.65-.44,2.82,2.82,0,0,1-1.1-1.22,3.63,3.63,0,0,1-.37-1.62m.89,0a2.65,2.65,0,0,0,.63,1.86,2.22,2.22,0,0,0,3.19,0,2.79,2.79,0,0,0,.63-2,3.35,3.35,0,0,0-.27-1.39,2.13,2.13,0,0,0-.78-.92A2.23,2.23,0,0,0,59,39a2.19,2.19,0,0,0-1.57.63A2.81,2.81,0,0,0,56.74,41.72Zm9,3.16V38.36h2.89a3.82,3.82,0,0,1,1.33.18,1.39,1.39,0,0,1,.72.62,1.83,1.83,0,0,1,.27,1,1.65,1.65,0,0,1-.45,1.17,2.22,2.22,0,0,1-1.38.6,2.13,2.13,0,0,1,.52.33,4.25,4.25,0,0,1,.71.87l1.14,1.77H70.4l-.86-1.36c-.25-.39-.46-.69-.62-.89a2,2,0,0,0-.44-.44,1.32,1.32,0,0,0-.39-.17,2.77,2.77,0,0,0-.49,0h-1v2.89Zm.86-3.64h1.86a2.81,2.81,0,0,0,.92-.12,1,1,0,0,0,.51-.4,1,1,0,0,0,.17-.58,1,1,0,0,0-.33-.76,1.58,1.58,0,0,0-1.06-.3H66.6Zm11.29,1.08v-.76h2.76V44a5.05,5.05,0,0,1-1.31.77A3.88,3.88,0,0,1,78,45a3.6,3.6,0,0,1-1.74-.41A2.69,2.69,0,0,1,75,43.39a3.72,3.72,0,0,1-.4-1.74,3.93,3.93,0,0,1,.4-1.77,2.58,2.58,0,0,1,1.14-1.23,3.59,3.59,0,0,1,1.73-.4,3.42,3.42,0,0,1,1.27.23,2.08,2.08,0,0,1,.9.64,2.74,2.74,0,0,1,.49,1.06l-.77.22a2.53,2.53,0,0,0-.37-.79,1.41,1.41,0,0,0-.62-.45,2.19,2.19,0,0,0-.9-.17,2.59,2.59,0,0,0-1,.18,2,2,0,0,0-.7.47,2.23,2.23,0,0,0-.41.65,3.32,3.32,0,0,0-.25,1.31,3.19,3.19,0,0,0,.3,1.46,1.93,1.93,0,0,0,.87.87,2.74,2.74,0,0,0,1.22.29,3.23,3.23,0,0,0,1.91-.68V42.32Zm5.85,2.56,2.5-6.52h.93l2.67,6.52h-1l-.76-2H85.37l-.71,2Zm1.88-2.68h2.21l-.68-1.8c-.21-.55-.36-1-.46-1.36a8,8,0,0,1-.35,1.25Zm7.43,2.68V38.36h.89l3.43,5.12V38.36h.82v6.52h-.88l-3.43-5.12v5.12Zm9.27-6.52h.86v6.52h-.86Zm4.4,6.52v-.8l3.34-4.18c.24-.29.46-.55.67-.77h-3.64v-.77h4.67v.77l-3.66,4.52-.39.46h4.16v.77Zm7.9,0,2.5-6.52h.93l2.67,6.52h-1l-.76-2h-2.73l-.72,2Zm1.88-2.68h2.21L118,40.4c-.21-.55-.36-1-.46-1.36a9.3,9.3,0,0,1-.35,1.25Zm12.09.39.87.22a2.89,2.89,0,0,1-1,1.62,2.64,2.64,0,0,1-1.72.56,3.07,3.07,0,0,1-1.72-.43,2.65,2.65,0,0,1-1-1.24,4.45,4.45,0,0,1-.35-1.75,3.86,3.86,0,0,1,.39-1.78,2.74,2.74,0,0,1,1.11-1.15,3.27,3.27,0,0,1,1.58-.39,2.52,2.52,0,0,1,2.58,1.9l-.85.2a2.06,2.06,0,0,0-.66-1,1.74,1.74,0,0,0-1.09-.32,2.08,2.08,0,0,0-1.25.36,1.84,1.84,0,0,0-.71,1,3.77,3.77,0,0,0-.21,1.25,4,4,0,0,0,.24,1.45,1.91,1.91,0,0,0,.76.93,2.15,2.15,0,0,0,1.11.3,1.82,1.82,0,0,0,1.22-.41A2.09,2.09,0,0,0,128.59,42.59Zm-2.59,3a2.34,2.34,0,0,1,.46,0,.63.63,0,0,1,.19.11.24.24,0,0,1,0,.14.27.27,0,0,1-.13.22,1.08,1.08,0,0,1-.59.12l-.42,0,0,.52a3.14,3.14,0,0,0,.64,0,1.56,1.56,0,0,0,1-.25.76.76,0,0,0,.32-.59.55.55,0,0,0-.19-.42,1,1,0,0,0-.57-.24l.15-.47h-.6Zm6.34-.69,2.5-6.52h.93l2.67,6.52h-1l-.76-2H134l-.72,2Zm1.88-2.68h2.21l-.68-1.8c-.21-.55-.36-1-.46-1.36a9.35,9.35,0,0,1-.36,1.25ZM133.9,38a1,1,0,0,1,.26-.74.85.85,0,0,1,.65-.27,1.85,1.85,0,0,1,.75.24,1.1,1.1,0,0,0,.41.13.29.29,0,0,0,.22-.08.54.54,0,0,0,.11-.31h.58a1.12,1.12,0,0,1-.26.76A.82.82,0,0,1,136,38a1.73,1.73,0,0,1-.74-.25,1.07,1.07,0,0,0-.44-.16.3.3,0,0,0-.24.1.46.46,0,0,0-.1.32Zm7.5,3.75a3.57,3.57,0,0,1,.87-2.55,3,3,0,0,1,2.25-.92,3.11,3.11,0,0,1,1.63.44,2.78,2.78,0,0,1,1.1,1.2,4.17,4.17,0,0,1,0,3.52,2.66,2.66,0,0,1-1.13,1.19,3.23,3.23,0,0,1-1.58.4,3,3,0,0,1-1.65-.44,2.89,2.89,0,0,1-1.1-1.22A3.63,3.63,0,0,1,141.4,41.71Zm.89,0a2.65,2.65,0,0,0,.63,1.86,2.23,2.23,0,0,0,3.2,0,2.79,2.79,0,0,0,.63-2,3.51,3.51,0,0,0-.27-1.39,2.15,2.15,0,0,0-.79-.92,2.28,2.28,0,0,0-2.74.31A2.81,2.81,0,0,0,142.29,41.72Zm13.76,1.07.81-.08a1.85,1.85,0,0,0,.27.81,1.38,1.38,0,0,0,.66.5,2.44,2.44,0,0,0,1,.2,2.33,2.33,0,0,0,.87-.15,1.21,1.21,0,0,0,.56-.4.9.9,0,0,0,.19-.56.88.88,0,0,0-.18-.54,1.43,1.43,0,0,0-.59-.38,12,12,0,0,0-1.16-.32,5.55,5.55,0,0,1-1.26-.41,1.71,1.71,0,0,1-.69-.6,1.42,1.42,0,0,1-.23-.81,1.66,1.66,0,0,1,.28-.93,1.77,1.77,0,0,1,.81-.65,3.13,3.13,0,0,1,1.2-.22,3.36,3.36,0,0,1,1.28.23A1.88,1.88,0,0,1,161,40.2l-.82.06a1.34,1.34,0,0,0-.46-.93,1.68,1.68,0,0,0-1.13-.32,1.77,1.77,0,0,0-1.14.29.85.85,0,0,0-.36.69.74.74,0,0,0,.25.58,3.54,3.54,0,0,0,1.3.46,8.64,8.64,0,0,1,1.45.42,2,2,0,0,1,.84.66,1.64,1.64,0,0,1,.27.93,1.76,1.76,0,0,1-.3,1,2,2,0,0,1-.86.72,3,3,0,0,1-1.25.25,3.57,3.57,0,0,1-1.48-.26,2,2,0,0,1-.94-.77A2.18,2.18,0,0,1,156.05,42.79Zm8.64-1.08a3.57,3.57,0,0,1,.87-2.55,3,3,0,0,1,2.25-.92,3.11,3.11,0,0,1,1.63.44,2.78,2.78,0,0,1,1.1,1.2,4.17,4.17,0,0,1,0,3.52,2.66,2.66,0,0,1-1.13,1.19,3.23,3.23,0,0,1-1.58.4,3,3,0,0,1-1.65-.44,2.89,2.89,0,0,1-1.1-1.22A3.63,3.63,0,0,1,164.69,41.71Zm.89,0a2.65,2.65,0,0,0,.63,1.86,2.22,2.22,0,0,0,3.19,0,2.79,2.79,0,0,0,.63-2,3.35,3.35,0,0,0-.27-1.39,2.07,2.07,0,0,0-.78-.92,2.23,2.23,0,0,0-1.17-.32,2.19,2.19,0,0,0-1.57.63A2.81,2.81,0,0,0,165.58,41.72Zm13.64.87.86.22a2.88,2.88,0,0,1-1,1.62,2.66,2.66,0,0,1-1.73.56,3.05,3.05,0,0,1-1.71-.43,2.67,2.67,0,0,1-1-1.24,4.44,4.44,0,0,1-.34-1.75,3.86,3.86,0,0,1,.39-1.78,2.74,2.74,0,0,1,1.11-1.15,3.22,3.22,0,0,1,1.58-.39,2.6,2.6,0,0,1,1.64.5,2.53,2.53,0,0,1,.93,1.4l-.85.2a2,2,0,0,0-.66-1,1.69,1.69,0,0,0-1.08-.32,2.13,2.13,0,0,0-1.26.36,2,2,0,0,0-.71,1,4.26,4.26,0,0,0,0,2.7,1.84,1.84,0,0,0,.75.93,2.18,2.18,0,0,0,1.11.3,1.85,1.85,0,0,0,1.23-.41A2.2,2.2,0,0,0,179.22,42.59Zm4.6-4.23h.87v6.52h-.87Zm4.2,6.52,2.51-6.52h.93l2.67,6.52h-1l-.76-2h-2.72l-.72,2Zm1.89-2.68h2.21l-.68-1.8c-.21-.55-.36-1-.46-1.36a9.35,9.35,0,0,1-.36,1.25Zm7.4,2.68V38.36h.87v5.75h3.21v.77Zm12.36,0V38.36h2.25a5.71,5.71,0,0,1,1.16.09,2.27,2.27,0,0,1,1,.47,2.68,2.68,0,0,1,.77,1.11,5.05,5.05,0,0,1,.08,2.87,3.11,3.11,0,0,1-.45,1,2.2,2.2,0,0,1-.59.59,2.14,2.14,0,0,1-.78.33,4.1,4.1,0,0,1-1,.11Zm.86-.77h1.4a3.39,3.39,0,0,0,1-.12,1.37,1.37,0,0,0,.58-.34,1.94,1.94,0,0,0,.48-.82,3.92,3.92,0,0,0,.17-1.26,3.08,3.08,0,0,0-.33-1.57,1.74,1.74,0,0,0-.82-.74,3.36,3.36,0,0,0-1.12-.13h-1.37Zm8.27.77V38.36h4.71v.77h-3.85v2h3.61v.76h-3.61v2.22h4v.77Zm18.31-2.29.86.22a2.89,2.89,0,0,1-1,1.62,2.64,2.64,0,0,1-1.72.56,3.09,3.09,0,0,1-1.72-.43,2.65,2.65,0,0,1-1-1.24,4.45,4.45,0,0,1-.35-1.75,3.86,3.86,0,0,1,.39-1.78,2.74,2.74,0,0,1,1.11-1.15,3.27,3.27,0,0,1,1.58-.39,2.52,2.52,0,0,1,2.58,1.9l-.85.2a2,2,0,0,0-.66-1,1.74,1.74,0,0,0-1.09-.32,2.08,2.08,0,0,0-1.25.36,1.84,1.84,0,0,0-.71,1,3.77,3.77,0,0,0-.21,1.25,3.83,3.83,0,0,0,.25,1.45,1.84,1.84,0,0,0,.75.93,2.15,2.15,0,0,0,1.11.3,1.87,1.87,0,0,0,1.23-.41A2.2,2.2,0,0,0,237.11,42.59Zm8.73-4.23h.87v3.77a4.43,4.43,0,0,1-.23,1.56,1.82,1.82,0,0,1-.8.94,2.85,2.85,0,0,1-1.52.36,3.15,3.15,0,0,1-1.5-.31,1.77,1.77,0,0,1-.83-.92,4.26,4.26,0,0,1-.25-1.63V38.36h.86v3.76a3.59,3.59,0,0,0,.16,1.26,1.2,1.2,0,0,0,.54.62,2,2,0,0,0,.94.22,1.79,1.79,0,0,0,1.36-.44,2.49,2.49,0,0,0,.4-1.66Zm4.8,6.52V38.36h.86v5.75h3.21v.77Zm8.62,0V39.13h-2.15v-.77h5.17v.77h-2.16v5.75ZM270,38.36h.87v3.77a4.43,4.43,0,0,1-.23,1.56,1.82,1.82,0,0,1-.8.94,2.85,2.85,0,0,1-1.52.36,3.15,3.15,0,0,1-1.5-.31,1.77,1.77,0,0,1-.83-.92,4.26,4.26,0,0,1-.25-1.63V38.36h.86v3.76a3.59,3.59,0,0,0,.16,1.26,1.25,1.25,0,0,0,.54.62,2,2,0,0,0,.94.22,1.79,1.79,0,0,0,1.36-.44,2.49,2.49,0,0,0,.4-1.66Zm4.85,6.52V38.36h2.89a3.72,3.72,0,0,1,1.32.18,1.38,1.38,0,0,1,.73.62,1.83,1.83,0,0,1,.27,1,1.65,1.65,0,0,1-.45,1.17,2.22,2.22,0,0,1-1.39.6,2.22,2.22,0,0,1,.53.33,4.6,4.6,0,0,1,.71.87l1.14,1.77h-1.09l-.86-1.36a8.75,8.75,0,0,0-.63-.89,1.8,1.8,0,0,0-.43-.44,1.27,1.27,0,0,0-.4-.17,2.72,2.72,0,0,0-.48,0h-1v2.89Zm.86-3.64h1.86a2.81,2.81,0,0,0,.92-.12,1,1,0,0,0,.68-1,1,1,0,0,0-.33-.76,1.59,1.59,0,0,0-1.07-.3h-2.06Zm7.52,3.64,2.5-6.52h.93l2.67,6.52h-1l-.76-2h-2.73l-.71,2Zm1.88-2.68h2.21l-.68-1.8c-.21-.55-.36-1-.46-1.36a8,8,0,0,1-.35,1.25Z"/><path class="cls-2" d="M0,17.39v-9c.84.37,15.14,9,14.44,16.21C14,29,10.25,35,0,42.75V35c4.31-2.29,12.24-7.12,11.65-11.33-1-7.14-8.25-6.37-11.67-6.32"/><path class="cls-2" d="M31.71,17.28v-9c-.84.37-15.13,9-14.43,16.22.36,3.7,3.1,8.75,10.38,14.89h0l.12.09c7.26,5.17,9.5,5.47,10.56,6.07l-.57-.38.8.33-.48-.43.41.15L35,43l.46.28-1-.84.22.24-1.23-1.07.83.51-3-2.18a2,2,0,0,1-.5-.43l.71.43L31,39.38l.54.38,1.34.82-.55-.47,4.58,2.79-6.06-4.33.57.31-.47-.5L32,39l-.21-.23.52.31h-.19l.69.37-.29-.24,3.59,2.13L32.69,39l-1.56-1-.61-.43.61.12L30.3,37l1,.44-.24-.19,2.24,1.37,1.3.83-.18-.23.82.59-.35-.12,4.48,2.74L38,41.26l1.28.78L37.4,40.48l1.36.9-2.53-1.86-4.91-3.34.66.29-.65-.57,4.86,3-3.67-2.63.15.16L32,36l.26.11-1.63-1.14.73.37-.71-.5,3.22,1.8-2-1.24,1.55.87-1.3-.81s-.1-.08,0-.1.46.17.37.11c-.32-.24-1.36-.78-1.75-1C26.33,32,19.5,27.52,20,23.61c1-7.15,8.25-6.38,11.67-6.33"/><path class="cls-1" d="M57.69,21a13.86,13.86,0,0,1,1-5.38,11.77,11.77,0,0,1,2.87-4.21,12.65,12.65,0,0,1,4.49-2.71,16.87,16.87,0,0,1,5.77-1A20,20,0,0,1,79.9,9.56a12.71,12.71,0,0,0-.83,2.86l-.26.07a9,9,0,0,0-2.12-1.76,10,10,0,0,0-2.47-1.1,9.39,9.39,0,0,0-2.53-.37,10.31,10.31,0,0,0-4.21.84,9,9,0,0,0-3.27,2.4,11.11,11.11,0,0,0-2.11,3.82,15.69,15.69,0,0,0-.74,4.95,13.69,13.69,0,0,0,1.44,6.52,9.82,9.82,0,0,0,3.74,4,9.65,9.65,0,0,0,4.85,1.31,11.2,11.2,0,0,0,4.21-.86A14.25,14.25,0,0,0,79.37,30l-.22,2.4a16.12,16.12,0,0,1-8.25,2.15,15.39,15.39,0,0,1-5.45-.91,11.33,11.33,0,0,1-6.84-6.93A16.53,16.53,0,0,1,57.69,21m24.2,13L93.59,7.79h.9l11.25,26.29c-.3,0-1,0-2.18-.14-.19,0-.48.05-.86.07s-.69.05-.89.07c-1.14-3.35-2.47-6.76-4-10.19H88.33c-.56,1.42-1.07,2.71-1.52,3.87s-.88,2.27-1.26,3.33-.7,2.06-1,3c-.15,0-.37,0-.68-.07a6.76,6.76,0,0,1-.7-.07l-.68.07A6.07,6.07,0,0,0,81.89,34.08Zm7.16-11.73h8.22l-4.21-9.57Zm19,11.73q.54-3.52,1.09-7.26c.36-2.48.66-4.58.9-6.28s.49-3.6.77-5.69.57-4.25.85-6.49h.93c.29.58,1,2,2.13,4.17s2.15,4.19,3.08,5.94,1.83,3.44,2.73,5,1.79,3.14,2.67,4.58q.9-1.66,2.7-4.95L129,17.42l2.24-4.1q.93-1.7,2.7-5h.83q.53,5,.78,7.3t.64,5.49c.25,2.11.55,4.44.88,7s.59,4.52.78,6l-1-.06c-.43,0-.74-.05-.94-.08-.9.09-1.44.14-1.61.14q-.2-2.22-.5-5.66c-.21-2.29-.36-4-.47-5.1s-.24-2.46-.4-4-.35-3.11-.54-4.64c-1.52,2.73-2.78,5-3.79,6.87s-2,3.81-3.08,5.85-2,4.12-3,6.26h-.37c-1-2.05-2-4.08-3-6.13s-2.22-4.35-3.55-6.91-2.36-4.55-3.09-5.94c-.06.52-.23,2-.52,4.51s-.52,4.47-.69,6-.31,3-.43,4.53-.19,3-.2,4.42c-.15,0-.39,0-.7-.07a6,6,0,0,1-.69-.07,5.5,5.5,0,0,1-.61.07Z"/><path class="cls-1" d="M35.39,34.07,47.09,7.78H48L59.25,34.07c-.3,0-1,0-2.18-.14L56.2,34c-.38,0-.68,0-.89.08q-1.7-5-4-10.2H41.84l-1.53,3.87q-.69,1.74-1.26,3.33t-1,3c-.15,0-.38,0-.68-.08l-.71-.06L36,34a5.61,5.61,0,0,0-.64.08m7.17-11.74h8.21l-4.2-9.56Z"/><path class="cls-3" d="M140.86,7.53h7.61a19.58,19.58,0,0,1,5.37.58,5.86,5.86,0,0,1,3.21,2.63,9.28,9.28,0,0,1,1.29,5.06,9.87,9.87,0,0,1-1,4.81,6.17,6.17,0,0,1-2.9,2.73,14.45,14.45,0,0,1-5.68.84h-2.05V34h-5.81Zm5.81,4.28v7.82h1.8c1.59,0,2.61-.37,3.07-1.1a5.33,5.33,0,0,0,.69-2.87,4.66,4.66,0,0,0-.54-2.4,2.5,2.5,0,0,0-1.23-1.19,6.14,6.14,0,0,0-2-.26Zm32.7,8.93q0,13.62-9.58,13.63a8.19,8.19,0,0,1-7.19-3.48q-2.41-3.48-2.42-10.15,0-13.62,9.59-13.62a8.26,8.26,0,0,1,7.14,3.41C178.55,12.81,179.37,16.2,179.37,20.74Zm-6.12,0c0-3.56-.28-5.94-.83-7.12a2.86,2.86,0,0,0-5.29,0q-.82,1.78-.83,7.11c0,3.48.28,5.84.82,7.06a2.84,2.84,0,0,0,5.28.08Q173.26,26.11,173.25,20.74ZM183.42,7.53h8.3a23,23,0,0,1,3.71.23A6.17,6.17,0,0,1,198,9a6.5,6.5,0,0,1,2.06,2.68,9.27,9.27,0,0,1,.75,3.8c0,3.3-1.24,5.63-3.72,7L202,34h-6.33l-3.52-10.45h-2.91V34h-5.8Zm5.8,4.28v7.41h2.56q3.41,0,3.4-3.81a4.1,4.1,0,0,0-.5-2.15,2.73,2.73,0,0,0-1.17-1.15,5,5,0,0,0-2-.3Zm13.6-4.28h16.47v5h-5.4V34h-5.81V12.49h-5.26Zm18.49,0h5.81V34h-5.81Zm10.59,0h6.44L245.14,24V7.53h4.49V34h-5.19l-8.05-19.13V34H231.9Zm27.91,0h5.85L273.21,34h-5.94L266,28.5h-7.43L257.22,34h-5.34Zm5,16.44-2.66-10.79L259.62,24ZM275.42,7.53h8.3a23,23,0,0,1,3.71.23A6.17,6.17,0,0,1,290,9a6.5,6.5,0,0,1,2.06,2.68,9.27,9.27,0,0,1,.75,3.8c0,3.3-1.24,5.63-3.72,7L294,34h-6.33l-3.52-10.45h-2.91V34h-5.8Zm5.8,4.28v7.41h2.56q3.41,0,3.41-3.81a4.1,4.1,0,0,0-.51-2.15,2.68,2.68,0,0,0-1.17-1.15,5,5,0,0,0-2-.3ZM297,7.53h5.81V34H297Z"/><polygon class="cls-4" points="8.75 6.53 14.73 0 22.21 8.78 16.08 16.46 8.75 6.53"/><polygon class="cls-5" points="14.73 0 14.73 0 16.08 16.46 8.75 6.53 14.73 0"/><path class="cls-1" d="M22.1,8.92c0-.05-.08-.16-.14-.25a5.67,5.67,0,0,0-1.7-1.18A18.79,18.79,0,0,0,17,6.22c-2.78-.81-6.1-1.07-8.21.43l-.08-.11c2.16-1.54,5.52-1.31,8.34-.49a20,20,0,0,1,3.25,1.28,5.18,5.18,0,0,1,1.73,1.28l.14.17Z"/><polygon class="cls-1" points="14.82 0.1 16.17 16.34 16.08 16.46 15.99 16.34 14.65 0.09 14.73 0 14.82 0.1"/></svg>