<svg id="Camada_1" data-name="Camada 1" xmlns="http://www.w3.org/2000/svg" viewBox="0 0 187.56 72.98"><defs><style>.cls-1{fill:#0c0c06;}.cls-1,.cls-2{fill-rule:evenodd;}.cls-2{fill:#be0811;}</style></defs><title>Marca-</title><path class="cls-1" d="M59.74,66.38A2.42,2.42,0,0,1,57.33,69c-1.47,0-2.47-1.08-2.47-3.24,0-2.47,1.1-3.45,2.55-3.45a2.3,2.3,0,0,1,2.33,2.48Zm0-3.22a2.37,2.37,0,0,0-2.35-1.56c-2.12,0-3.39,1.47-3.39,4.17s1.4,3.94,3.11,3.94a2.57,2.57,0,0,0,2.63-1.79l.12,1.63h.74V58.28h-.86ZM66,69c-1.59,0-2.53-1.21-2.53-3.31h5.26a5.13,5.13,0,0,0,.1-1c0-1.79-1-3.11-2.85-3.11-2.06,0-3.34,1.49-3.34,4.07s1.28,4,3.29,4c1.49,0,2.6-.58,2.89-2.06l-.76-.17A1.87,1.87,0,0,1,66,69Zm-2.5-4c.15-1.69,1-2.69,2.43-2.69A2,2,0,0,1,68,64.54,3.39,3.39,0,0,1,68,65ZM73.6,67.75c.3,1.35,1.26,2,2.85,2s2.75-.65,2.75-2.15-.83-1.87-2.11-2.21l-1-.25c-1-.24-1.4-.59-1.4-1.42s.71-1.4,1.79-1.4a1.58,1.58,0,0,1,1.83,1.49l.82-.11c-.2-1.48-1.15-2.06-2.65-2.06-1.33,0-2.6.58-2.6,2.17,0,1.19.68,1.77,1.94,2.07l1,.25c1.06.26,1.55.7,1.55,1.56S77.63,69,76.45,69a1.8,1.8,0,0,1-2-1.52Zm11.25-7.29c1,0,1.45-.73,1.1-1.78h-.57c.1.75-.14,1-.58,1s-.54-.17-1-.45a2.12,2.12,0,0,0-1.32-.54c-.89,0-1.41.76-1,1.75H82c-.13-.71.14-1,.58-1a1.91,1.91,0,0,1,1,.49A2,2,0,0,0,84.85,60.46Zm.54,6.65A2,2,0,0,1,83.22,69c-1.1,0-1.67-.59-1.67-1.48,0-1.2,1.06-1.76,3-1.76a6.77,6.77,0,0,1,.81,0ZM86.25,64c0-1.8-1.18-2.4-2.59-2.4s-2.59.53-2.71,2.18l.8.12a1.83,1.83,0,0,1,3.64.2v1.08a6.7,6.7,0,0,0-1-.05c-2.51,0-3.73.9-3.73,2.48a2.08,2.08,0,0,0,2.37,2.1,2.42,2.42,0,0,0,2.4-1.47c0,1,.48,1.38,1.26,1.38a1.76,1.76,0,0,0,.52-.07v-.7a.73.73,0,0,1-.35.06c-.41,0-.63-.25-.63-1Zm5.47,5.71c2.08,0,3.35-1.44,3.35-4.09s-1.27-4-3.35-4-3.32,1.39-3.32,4S89.68,69.71,91.72,69.71Zm0-7.38c1.62,0,2.5,1.1,2.5,3.29S93.34,69,91.72,69s-2.48-1.16-2.48-3.39S90.12,62.33,91.72,62.33Zm9.78,2.72a2.43,2.43,0,0,1,2.46-2.7c1.44,0,2.4,1,2.4,3.22,0,2.38-1.12,3.46-2.55,3.46a2.29,2.29,0,0,1-2.31-2.53Zm0,3.12a2.37,2.37,0,0,0,2.41,1.54c2.08,0,3.32-1.69,3.32-4.21s-1.23-3.9-3.1-3.9a2.73,2.73,0,0,0-2.72,1.88l-.12-1.72h-.65V73h.86Zm11.89-1.06a2,2,0,0,1-2.17,1.9c-1.1,0-1.67-.59-1.67-1.48,0-1.2,1.06-1.76,3-1.76a6.64,6.64,0,0,1,.81,0Zm.87-3.11c0-1.8-1.19-2.4-2.6-2.4s-2.59.53-2.7,2.18l.79.12a1.6,1.6,0,0,1,1.82-1.57c1.07,0,1.82.44,1.82,1.77v1.08a6.64,6.64,0,0,0-1-.05c-2.52,0-3.73.9-3.73,2.48a2.07,2.07,0,0,0,2.36,2.1,2.41,2.41,0,0,0,2.4-1.47c0,1,.49,1.38,1.26,1.38a1.89,1.89,0,0,0,.53-.07v-.7a.8.8,0,0,1-.36.06c-.41,0-.62-.25-.62-1Zm7.49,5.55h.73V61.76h-.86v4.52c0,1.77-1.1,2.77-2.3,2.77s-1.74-.63-1.74-2V61.76h-.86v5.38c0,1.84,1,2.57,2.38,2.57a2.44,2.44,0,0,0,2.53-1.86Zm5.32-.74a1.68,1.68,0,0,1-.53.09c-.42,0-.72-.22-.72-.85V58.28H125v9.89a1.31,1.31,0,0,0,1.43,1.47,2.7,2.7,0,0,0,.68-.09Zm4.47.9c2.08,0,3.34-1.44,3.34-4.09s-1.26-4-3.34-4-3.33,1.39-3.33,4S129.5,69.71,131.54,69.71Zm0-7.38c1.62,0,2.5,1.1,2.5,3.29s-.88,3.39-2.5,3.39-2.48-1.16-2.48-3.39S129.94,62.33,131.54,62.33Z"/><path class="cls-1" d="M2.83,50.21c.31,1.35,1.27,2,2.86,2S8.44,51.52,8.44,50s-.83-1.87-2.11-2.21l-1-.25c-1-.24-1.4-.59-1.4-1.42s.71-1.4,1.79-1.4,1.69.45,1.82,1.48l.83-.1c-.2-1.48-1.15-2.06-2.65-2.06-1.33,0-2.6.58-2.6,2.16,0,1.2.67,1.78,1.94,2.08l1,.25c1.07.26,1.56.69,1.56,1.56s-.76,1.38-1.94,1.38A1.81,1.81,0,0,1,3.64,50Zm7.35-8.39a.61.61,0,0,0,.62.62.63.63,0,0,0,.66-.62.65.65,0,0,0-.66-.66A.63.63,0,0,0,10.18,41.82ZM10.38,52h.86v-7.8h-.86ZM13,50.21c.3,1.35,1.26,2,2.85,2s2.75-.65,2.75-2.15-.83-1.87-2.11-2.21l-1-.25c-1-.24-1.4-.59-1.4-1.42s.7-1.4,1.78-1.4,1.69.45,1.83,1.48l.82-.1c-.2-1.48-1.14-2.06-2.65-2.06-1.33,0-2.59.58-2.59,2.16,0,1.2.67,1.78,1.94,2.08l1,.25c1.06.26,1.55.69,1.55,1.56s-.76,1.38-1.94,1.38a1.8,1.8,0,0,1-2-1.52Zm10.9.74a1.89,1.89,0,0,1-1.33.47c-.69,0-1.15-.4-1.15-1.38V44.92H23.8v-.7H21.47V42.44l-.86.12v1.66H19.48v.7h1.13v5.27a1.74,1.74,0,0,0,1.89,2,2.5,2.5,0,0,0,1.67-.53Zm4.54.52c-1.59,0-2.53-1.21-2.53-3.3h5.27a5.34,5.34,0,0,0,.1-1c0-1.79-1-3.11-2.86-3.11-2.05,0-3.34,1.49-3.34,4.07s1.29,4,3.29,4c1.49,0,2.6-.58,2.89-2.06l-.76-.17A1.87,1.87,0,0,1,28.47,51.47Zm-2.5-4c.16-1.69,1-2.69,2.43-2.69A2,2,0,0,1,30.46,47c0,.17,0,.3,0,.46ZM38.82,46a2,2,0,0,0-2.18-1.94A2.49,2.49,0,0,0,34.14,46L34,44.22h-.66V52h.86V47.59c0-1.82,1-2.77,2.23-2.77s1.62.7,1.62,1.93V52h.86V47.59c0-1.82,1-2.77,2.21-2.77s1.63.7,1.63,1.93V52h.87V46.48a2.14,2.14,0,0,0-2.32-2.42A2.51,2.51,0,0,0,38.82,46Zm11.42,3.57a2,2,0,0,1-2.17,1.9c-1.1,0-1.67-.59-1.67-1.48,0-1.2,1.06-1.76,3-1.76a6.77,6.77,0,0,1,.81.05Zm.87-3.11c0-1.81-1.18-2.4-2.6-2.4s-2.59.53-2.7,2.18l.79.12a1.6,1.6,0,0,1,1.82-1.57c1.07,0,1.82.44,1.82,1.77v1.08a6.64,6.64,0,0,0-1,0c-2.52,0-3.73.9-3.73,2.48a2.07,2.07,0,0,0,2.36,2.1,2.4,2.4,0,0,0,2.4-1.47c.05,1,.48,1.38,1.26,1.38a1.76,1.76,0,0,0,.52-.07V51.3a.73.73,0,0,1-.35.07c-.41,0-.62-.25-.62-1Zm9,5c-1.59,0-2.54-1.21-2.54-3.3h5.27a5.34,5.34,0,0,0,.1-1c0-1.79-1-3.11-2.85-3.11-2.06,0-3.34,1.49-3.34,4.07s1.28,4,3.29,4c1.48,0,2.6-.58,2.88-2.06l-.75-.17A1.87,1.87,0,0,1,60.14,51.47Zm-2.5-4c.15-1.69,1-2.69,2.43-2.69A2,2,0,0,1,62.13,47a3.46,3.46,0,0,1,0,.46Zm6.65,2.75c.3,1.35,1.26,2,2.85,2s2.75-.65,2.75-2.15-.83-1.87-2.11-2.21l-1-.25c-1-.24-1.4-.59-1.4-1.42s.7-1.4,1.78-1.4,1.69.45,1.83,1.48l.82-.1c-.2-1.48-1.14-2.06-2.65-2.06-1.33,0-2.59.58-2.59,2.16,0,1.2.67,1.78,1.94,2.08l1,.25c1.06.26,1.55.69,1.55,1.56s-.76,1.38-1.94,1.38a1.8,1.8,0,0,1-2-1.52Zm10.9.74a1.87,1.87,0,0,1-1.33.47c-.69,0-1.15-.4-1.15-1.38V44.92h2.35v-.7H72.73V42.44l-.86.12v1.66H70.74v.7h1.13v5.27a1.74,1.74,0,0,0,1.89,2,2.5,2.5,0,0,0,1.67-.53Zm5.91-1.38a2,2,0,0,1-2.18,1.9c-1.1,0-1.67-.59-1.67-1.48,0-1.2,1.06-1.76,3-1.76a6.91,6.91,0,0,1,.81.05ZM82,46.46c0-1.81-1.18-2.4-2.6-2.4s-2.58.53-2.7,2.18l.79.12a1.6,1.6,0,0,1,1.83-1.57,1.58,1.58,0,0,1,1.82,1.77v1.08a6.84,6.84,0,0,0-1,0c-2.52,0-3.73.9-3.73,2.48a2.08,2.08,0,0,0,2.36,2.1,2.4,2.4,0,0,0,2.4-1.47c0,1,.49,1.38,1.26,1.38a1.89,1.89,0,0,0,.53-.07V51.3a.74.74,0,0,1-.36.07c-.4,0-.62-.25-.62-1Zm7.88,2.38a2.42,2.42,0,0,1-2.41,2.62C86,51.46,85,50.38,85,48.22c0-2.47,1.1-3.45,2.55-3.45a2.3,2.3,0,0,1,2.33,2.48Zm0-3.22a2.36,2.36,0,0,0-2.35-1.56c-2.12,0-3.39,1.47-3.39,4.17s1.4,3.94,3.11,3.94a2.57,2.57,0,0,0,2.63-1.79L90,52h.74V40.74h-.86ZM98.37,52h.72V44.22h-.86v4.52c0,1.77-1.1,2.77-2.29,2.77s-1.74-.63-1.74-2V44.22h-.87V49.6c0,1.84,1,2.57,2.38,2.57a2.45,2.45,0,0,0,2.54-1.86Zm7.4-2.44a2,2,0,0,1-2.17,1.9c-1.1,0-1.67-.59-1.67-1.48,0-1.2,1.06-1.76,3-1.76a6.77,6.77,0,0,1,.81.05Zm.87-3.11c0-1.81-1.19-2.4-2.6-2.4s-2.59.53-2.7,2.18l.79.12A1.6,1.6,0,0,1,104,44.79c1.07,0,1.82.44,1.82,1.77v1.08a6.64,6.64,0,0,0-1,0c-2.52,0-3.73.9-3.73,2.48a2.07,2.07,0,0,0,2.36,2.1,2.41,2.41,0,0,0,2.4-1.47c0,1,.48,1.38,1.26,1.38a1.76,1.76,0,0,0,.52-.07V51.3a.73.73,0,0,1-.35.07c-.4,0-.62-.25-.62-1Zm4.69,4.81a1.69,1.69,0,0,1-.53.08c-.42,0-.72-.21-.72-.84V40.74h-.86v9.89a1.31,1.31,0,0,0,1.43,1.47,2.7,2.7,0,0,0,.68-.09Zm10.51-2.43a2.41,2.41,0,0,1-2.41,2.62c-1.47,0-2.47-1.08-2.47-3.24,0-2.47,1.1-3.45,2.55-3.45a2.3,2.3,0,0,1,2.33,2.48Zm0-3.22a2.35,2.35,0,0,0-2.34-1.56c-2.13,0-3.4,1.47-3.4,4.17s1.4,3.94,3.11,3.94a2.56,2.56,0,0,0,2.63-1.79L122,52h.74V40.74h-.86Zm6.28,5.85c-1.58,0-2.53-1.21-2.53-3.3h5.27a5.34,5.34,0,0,0,.1-1c0-1.79-1-3.11-2.86-3.11s-3.34,1.49-3.34,4.07,1.29,4,3.29,4c1.49,0,2.6-.58,2.89-2.06l-.76-.17A1.87,1.87,0,0,1,128.12,51.47Zm-2.5-4c.15-1.69,1-2.69,2.43-2.69A2,2,0,0,1,130.11,47c0,.17,0,.3,0,.46ZM142,46a2,2,0,0,0-2.18-1.94A2.47,2.47,0,0,0,137.29,46l-.12-1.77h-.66V52h.86V47.59c0-1.82,1-2.77,2.23-2.77s1.62.7,1.62,1.93V52h.86V47.59c0-1.82,1-2.77,2.21-2.77s1.64.7,1.64,1.93V52h.86V46.48a2.13,2.13,0,0,0-2.31-2.42A2.52,2.52,0,0,0,142,46Zm12.24,6h.72V44.22h-.86v4.52c0,1.77-1.09,2.77-2.29,2.77s-1.74-.63-1.74-2V44.22h-.86V49.6c0,1.84,1,2.57,2.38,2.57a2.44,2.44,0,0,0,2.53-1.86Zm2.51-1.8c.31,1.35,1.27,2,2.86,2s2.75-.65,2.75-2.15-.83-1.87-2.11-2.21l-1-.25c-1-.24-1.4-.59-1.4-1.42s.71-1.4,1.79-1.4,1.69.45,1.82,1.48l.83-.1c-.2-1.48-1.15-2.06-2.65-2.06-1.33,0-2.6.58-2.6,2.16,0,1.2.68,1.78,1.94,2.08l1,.25c1.07.26,1.56.69,1.56,1.56s-.76,1.38-1.94,1.38a1.81,1.81,0,0,1-2-1.52Zm10.38,1.26c-1.58,0-2.53-1.21-2.53-3.3h5.27a5.34,5.34,0,0,0,.1-1c0-1.79-1-3.11-2.85-3.11-2.06,0-3.35,1.49-3.35,4.07s1.29,4,3.3,4c1.48,0,2.6-.58,2.88-2.06l-.76-.17A1.86,1.86,0,0,1,167.09,51.47Zm-2.49-4c.15-1.69,1-2.69,2.43-2.69A2,2,0,0,1,169.09,47a3.46,3.46,0,0,1,0,.46ZM176.88,52h.73V44.22h-.86v4.52c0,1.77-1.1,2.77-2.3,2.77s-1.74-.63-1.74-2V44.22h-.86V49.6c0,1.84,1,2.57,2.38,2.57a2.43,2.43,0,0,0,2.53-1.86Zm2.52-1.8c.3,1.35,1.26,2,2.85,2S185,51.52,185,50s-.82-1.87-2.11-2.21l-1-.25c-1-.24-1.4-.59-1.4-1.42s.7-1.4,1.78-1.4,1.69.45,1.83,1.48l.82-.1c-.2-1.48-1.14-2.06-2.65-2.06-1.33,0-2.59.58-2.59,2.16,0,1.2.67,1.78,1.94,2.08l1,.25c1.06.26,1.55.69,1.55,1.56s-.76,1.38-1.94,1.38a1.8,1.8,0,0,1-2-1.52Z"/><path class="cls-2" d="M143.29,23.72c.9,5.46,4.66,8.42,10.22,8.42,6,0,9.8-2.8,9.8-8.15s-3.5-7.2-9.22-8.79-8.68-2.7-8.68-7.15c0-4.87,3.49-6.67,7.78-6.67,5,0,7.73,2,8.63,7.25l1-.21C162,2.6,158.59.32,153.19.32c-4.55,0-8.89,2-8.89,7.73,0,5.29,4,6.67,9.42,8.15s8.47,3.23,8.47,7.79c0,4.76-3.44,7.09-8.68,7.09-5.08,0-8.26-2.64-9.16-7.67Zm27.48-22h6.51c6.62,0,9.17,2.76,9.17,8.05,0,5.93-3,8.32-9.17,8.32h-6.51Zm0,30.14V19.12h6.62c6.73,0,10.17-2.92,10.17-9.38,0-5.93-3-9.1-10.17-9.1h-7.73V31.83Z"/><path class="cls-1" d="M0,25.05c1.43,5.19,6.57,7.41,13,7.41,7.78,0,14.14-2.7,14.14-10.22,0-6.35-3.87-9.95-11.81-10.91-2.54-.32-3.44-.84-3.44-1.85,0-.85.68-1.33,1.85-1.33a2.46,2.46,0,0,1,2.8,2.23L27,8.05c-1.27-5.67-6-8-12.87-8C7.1,0,.9,2.65.9,10.8c0,5.72,3.07,9,12.29,10.38,1.69.27,2.38.74,2.38,1.59s-.74,1.43-2.17,1.43a3.56,3.56,0,0,1-3.55-2.7Zm30.34,6.78H41.2V.64H30.34Zm13.77-6.78c1.43,5.19,6.57,7.41,13,7.41,7.78,0,14.14-2.7,14.14-10.22,0-6.35-3.87-9.95-11.81-10.91C56.92,11,56,10.49,56,9.48c0-.85.68-1.33,1.85-1.33a2.46,2.46,0,0,1,2.8,2.23L71.12,8.05c-1.27-5.67-6-8-12.87-8C51.21,0,45,2.65,45,10.8c0,5.72,3.07,9,12.29,10.38,1.69.27,2.38.74,2.38,1.59s-.74,1.43-2.17,1.43A3.56,3.56,0,0,1,54,21.5Zm54-2.12H84.88V20.12H96.43V12.34H84.88V9.53h13V.64H74.45V31.83H98.07ZM123,26.16l1.8-3.81c.9-1.86,1.91-4.66,1.91-4.66h.21s-.16,2.64-.16,5.5v8.64h10.85V.64h-11.8l-3.23,6.77a45.63,45.63,0,0,0-2.39,5.78H120a46.28,46.28,0,0,0-2.38-5.78L114.38.64H102.57V31.83h10.85V23.19c0-2.86-.15-5.5-.15-5.5h.21s1,2.8,1.9,4.66l1.8,3.81Z"/></svg>